<?xml version="1.0" encoding="UTF-8"?>
<svg width="800" height="400" viewBox="0 0 800 400" fill="none" xmlns="http://www.w3.org/2000/svg">
  <!-- 背景 -->
  <rect width="800" height="400" fill="#F0F8FF"/>
  
  <!-- 主體容器 -->
  <rect x="100" y="80" width="600" height="240" rx="8" fill="#FFFFFF" stroke="#E2E2E2" stroke-width="2"/>
  
  <!-- 瀏覽器頂部欄 -->
  <rect x="100" y="80" width="600" height="40" rx="8 8 0 0" fill="#F8F8F8" stroke="#E2E2E2" stroke-width="2"/>
  <circle cx="130" cy="100" r="6" fill="#FF6B6B"/>
  <circle cx="150" cy="100" r="6" fill="#FFD93D"/>
  <circle cx="170" cy="100" r="6" fill="#6BCB77"/>
  
  <!-- 搜尋欄 -->
  <rect x="240" y="90" width="320" height="20" rx="10" fill="#FFFFFF" stroke="#E2E2E2" stroke-width="1"/>
  <circle cx="250" cy="100" r="4" fill="#A0AEC0"/>
  
  <!-- 購物車圖示 -->
  <rect x="600" y="90" width="20" height="20" rx="4" fill="#F8F8F8"/>
  <path d="M605 95 L605 97 L615 97 L613 105 H607 L605 95" stroke="#333333" stroke-width="1" fill="none"/>
  <circle cx="608" cy="107" r="2" fill="#333333"/>
  <circle cx="612" cy="107" r="2" fill="#333333"/>
  
  <!-- 網站標題 -->
  <rect x="150" y="140" width="150" height="30" rx="4" fill="#4299E1" fill-opacity="0.8"/>
  <text x="225" y="160" font-family="Arial" font-size="14" font-weight="bold" fill="white" text-anchor="middle">i80購物平台</text>
  
  <!-- 商品區塊 -->
  <rect x="150" y="180" width="150" height="120" rx="4" fill="#F8F8F8" stroke="#E2E2E2" stroke-width="1"/>
  <rect x="160" y="190" width="130" height="70" rx="2" fill="#EDF2F7"/>
  <rect x="160" y="270" width="70" height="20" rx="2" fill="#4299E1" fill-opacity="0.8"/>
  <text x="195" y="285" font-family="Arial" font-size="10" fill="white" text-anchor="middle">加入購物車</text>
  <text x="225" y="285" font-family="Arial" font-size="12" fill="#333333" text-anchor="middle">$299</text>
  
  <rect x="325" y="180" width="150" height="120" rx="4" fill="#F8F8F8" stroke="#E2E2E2" stroke-width="1"/>
  <rect x="335" y="190" width="130" height="70" rx="2" fill="#EDF2F7"/>
  <rect x="335" y="270" width="70" height="20" rx="2" fill="#4299E1" fill-opacity="0.8"/>
  <text x="370" y="285" font-family="Arial" font-size="10" fill="white" text-anchor="middle">加入購物車</text>
  <text x="400" y="285" font-family="Arial" font-size="12" fill="#333333" text-anchor="middle">$199</text>
  
  <rect x="500" y="180" width="150" height="120" rx="4" fill="#F8F8F8" stroke="#E2E2E2" stroke-width="1"/>
  <rect x="510" y="190" width="130" height="70" rx="2" fill="#EDF2F7"/>
  <rect x="510" y="270" width="70" height="20" rx="2" fill="#4299E1" fill-opacity="0.8"/>
  <text x="545" y="285" font-family="Arial" font-size="10" fill="white" text-anchor="middle">加入購物車</text>
  <text x="575" y="285" font-family="Arial" font-size="12" fill="#333333" text-anchor="middle">$399</text>
  
  <!-- 商品圖示 -->
  <rect x="185" y="205" width="80" height="40" rx="2" fill="#A0AEC0"/>
  <rect x="360" y="205" width="80" height="40" rx="2" fill="#A0AEC0"/>
  <rect x="535" y="205" width="80" height="40" rx="2" fill="#A0AEC0"/>
  
  <!-- Logo和網站名稱 -->
  <text x="400" y="330" font-family="Arial" font-size="24" font-weight="bold" fill="#4299E1" text-anchor="middle">i80.com.tw</text>
  <text x="400" y="360" font-family="Arial" font-size="16" fill="#555555" text-anchor="middle">現代化電商購物平台</text>
</svg> 