<?xml version="1.0" encoding="UTF-8"?>
<svg width="800" height="400" viewBox="0 0 800 400" fill="none" xmlns="http://www.w3.org/2000/svg">
  <!-- 背景 -->
  <rect width="800" height="400" fill="#F5F9FF"/>
  
  <!-- 圖表格 -->
  <rect x="150" y="80" width="500" height="240" rx="8" fill="#FFFFFF" stroke="#E0E7FF" stroke-width="2"/>
  
  <!-- 監控儀表板元素 -->
  <rect x="170" y="100" width="150" height="80" rx="4" fill="#EBF5FF"/>
  <circle cx="245" cy="140" r="30" fill="#FFFFFF" stroke="#4D7CFE" stroke-width="2"/>
  <path d="M245 120 L245 140 L260 150" stroke="#4D7CFE" stroke-width="2" stroke-linecap="round"/>
  
  <!-- 折線圖 -->
  <rect x="340" y="100" width="290" height="80" rx="4" fill="#EBF5FF"/>
  <polyline points="360,160 390,140 420,150 450,120 480,130 510,110 540,125 570,100 600,115" 
            stroke="#4D7CFE" stroke-width="2" fill="none" stroke-linecap="round" stroke-linejoin="round"/>
  
  <!-- 柱狀圖 -->
  <rect x="170" y="200" width="220" height="100" rx="4" fill="#EBF5FF"/>
  <rect x="190" y="260" width="20" height="20" fill="#4D7CFE"/>
  <rect x="220" y="240" width="20" height="40" fill="#4D7CFE"/>
  <rect x="250" y="220" width="20" height="60" fill="#4D7CFE"/>
  <rect x="280" y="230" width="20" height="50" fill="#4D7CFE"/>
  <rect x="310" y="210" width="20" height="70" fill="#4D7CFE"/>
  <rect x="340" y="250" width="20" height="30" fill="#4D7CFE"/>
  
  <!-- 系統架構圖 -->
  <rect x="410" y="200" width="220" height="100" rx="4" fill="#EBF5FF"/>
  
  <!-- 雲服務 -->
  <path d="M460 240 C460 235 465 230 470 230 C475 230 480 235 480 240 C480 230 490 230 495 235 C500 240 500 245 495 250 C500 250 505 255 505 260 C505 265 500 270 495 270 L470 270 C465 270 460 265 460 260 L460 240Z" 
        fill="#FFFFFF" stroke="#4D7CFE" stroke-width="1.5"/>
        
  <!-- 服務器 -->
  <rect x="530" y="235" width="60" height="40" rx="2" fill="#FFFFFF" stroke="#4D7CFE" stroke-width="1.5"/>
  <line x1="530" y1="245" x2="590" y2="245" stroke="#4D7CFE" stroke-width="1"/>
  <line x1="535" y1="240" x2="540" y2="240" stroke="#4D7CFE" stroke-width="1.5" stroke-linecap="round"/>
  <line x1="535" y1="250" x2="540" y2="250" stroke="#4D7CFE" stroke-width="1.5" stroke-linecap="round"/>
  <line x1="535" y1="255" x2="540" y2="255" stroke="#4D7CFE" stroke-width="1.5" stroke-linecap="round"/>
  <line x1="535" y1="260" x2="540" y2="260" stroke="#4D7CFE" stroke-width="1.5" stroke-linecap="round"/>
  
  <!-- 連接線 -->
  <line x1="490" y1="250" x2="530" y2="250" stroke="#4D7CFE" stroke-width="1.5" stroke-dasharray="3 2"/>
  
  <!-- 文字 -->
  <text x="400" y="340" font-family="Arial" font-size="24" font-weight="bold" fill="#2E5AAC" text-anchor="middle">可觀測性平台設計與實踐</text>
  <text x="400" y="370" font-family="Arial" font-size="16" fill="#4D7CFE" text-anchor="middle">Monitoring · Logging · Tracing</text>
</svg> 